<svg version="1.2" xmlns="http://www.w3.org/2000/svg" viewBox="0 0 137 51" width="137" height="51">
	<title>inSITE text logo only</title>
	<path id="Layer 1" class="s0" fill="var(--s0-color)" d="m5 19h8v24h-8zm13 0h8v3c0 0 1.1-3 7.5-3 5.8 0 7.5 5.3 7.5 5.3v18.7h-7v-13.3c0 0 0.7-4.8-4-4.8-4.8 0-4 5.2-4 5.2v12.9h-8zm28 21l3-7c0 0 5.4 3.1 9 3 2.6-0.1 3.5-1.5 3.4-3.4 0-2.3-4.2-4.5-8.4-5.6-4.2-1.1-6.4-5.2-6.4-10 0-4.8 4.9-10 10.4-10 7.7 0 11 3 11 3l-3 6c0 0-5.6-2.6-8.7-1.3-3 1.3-0.9 5.3 1.9 5.8 2.7 0.6 8.8 2.8 10.3 6.1 0.7 1.4 1.5 3.5 1.6 5.6 0 2.8-1.2 5.6-2.8 7.1-2.8 2.5-5.5 3.7-11.3 3.7-5.8 0-10-3-10-3zm28-32v35h8v-35zm12 0v7h7v28h8v-28h7v-7zm26 0v35h19v-8h-11v-20h11v-7z"/>
	<path id="Shape 1" fill-rule="evenodd" fill="var(--s1-color)" class="s1" d="m127 29.5c-2.5 0-4.5-2-4.5-4.5 0-2.5 2-4.5 4.5-4.5 2.5 0 4.5 2 4.5 4.5 0 2.5-2 4.5-4.5 4.5z"/>
	<path id="Shape 1 copy" fill-rule="evenodd" fill="var(--s1-color)" class="s1" d="m9 14.5c-2.5 0-4.5-2-4.5-4.5 0-2.5 2-4.5 4.5-4.5 2.5 0 4.5 2 4.5 4.5 0 2.5-2 4.5-4.5 4.5z"/>
</svg>
